#include "../Plugins/hUGEDriver.h"
#include <stddef.h>

static const unsigned char order_cnt = 4;

static const unsigned char P0[] = {
    DN(___,0,0x000),
    DN(C_5,3,0x000),
    DN(___,0,0xE00),
    DN(As5,3,0x000),
    DN(___,0,0xE00),
    DN(As5,3,0x000),
    DN(___,0,0xE00),
    DN(___,0,0x000),
    DN(___,0,0x000),
    DN(___,0,0x000),
    DN(Gs5,3,0x000),
    DN(___,0,0xE00),
    DN(F_5,3,0x000),
    DN(___,0,0xE00),
    DN(Gs5,3,0x000),
    DN(___,0,0xE00),
    DN(Ds5,3,0x000),
    DN(___,0,0x000),
    DN(___,0,0xE00),
    DN(___,0,0x000),
    DN(Ds5,3,0x000),
    DN(___,0,0xE00),
    DN(F_5,3,0x000),
    DN(___,0,0xE00),
    DN(Cs5,3,0x000),
    DN(___,0,0x000),
    DN(___,0,0xE00),
    DN(___,0,0x000),
    DN(Cs5,3,0x000),
    DN(___,0,0xE00),
    DN(Ds5,3,0x000),
    DN(___,0,0xE00),
    DN(C_5,3,0x000),
    DN(___,0,0xE00),
    DN(G_5,3,0x000),
    DN(___,0,0xE00),
    DN(F_5,3,0x000),
    DN(___,0,0x000),
    DN(___,0,0xE00),
    DN(___,0,0xD01),
    DN(___,0,0x000),
    DN(___,0,0x000),
    DN(___,0,0x000),
    DN(___,0,0x000),
    DN(___,0,0x000),
    DN(___,0,0x000),
    DN(___,0,0x000),
    DN(___,0,0x000),
    DN(___,0,0x000),
    DN(___,0,0x000),
    DN(___,0,0x000),
    DN(___,0,0x000),
    DN(___,0,0x000),
    DN(___,0,0x000),
    DN(___,0,0x000),
    DN(___,0,0x000),
    DN(___,0,0x000),
    DN(___,0,0x000),
    DN(___,0,0x000),
    DN(___,0,0x000),
    DN(___,0,0x000),
    DN(___,0,0x000),
    DN(___,0,0x000),
    DN(___,0,0x000),
};
static const unsigned char P1[] = {
    DN(___,0,0x000),
    DN(___,0,0x000),
    DN(C_6,3,0x000),
    DN(___,0,0xE00),
    DN(Gs5,3,0x000),
    DN(___,0,0xE00),
    DN(G_5,3,0x000),
    DN(___,0,0x000),
    DN(___,0,0x000),
    DN(___,0,0x000),
    DN(___,0,0xE00),
    DN(G_5,3,0x000),
    DN(___,0,0xE00),
    DN(G_5,3,0x000),
    DN(___,0,0xE00),
    DN(As5,3,0x000),
    DN(___,0,0xE00),
    DN(___,0,0x000),
    DN(Ds5,3,0x000),
    DN(___,0,0x000),
    DN(___,0,0xE00),
    DN(Ds5,3,0x000),
    DN(___,0,0xE00),
    DN(Ds5,3,0x000),
    DN(___,0,0xE00),
    DN(___,0,0x000),
    DN(Cs5,3,0x000),
    DN(___,0,0x000),
    DN(___,0,0xE00),
    DN(Cs5,3,0x000),
    DN(___,0,0xE00),
    DN(Cs5,3,0x000),
    DN(___,0,0xE00),
    DN(Gs5,3,0x000),
    DN(___,0,0xE00),
    DN(Gs5,3,0x000),
    DN(___,0,0xE00),
    DN(___,0,0x000),
    DN(___,0,0x000),
    DN(___,0,0xD01),
    DN(___,0,0x000),
    DN(___,0,0x000),
    DN(___,0,0x000),
    DN(___,0,0x000),
    DN(___,0,0x000),
    DN(___,0,0x000),
    DN(___,0,0x000),
    DN(___,0,0x000),
    DN(___,0,0x000),
    DN(___,0,0x000),
    DN(___,0,0x000),
    DN(___,0,0x000),
    DN(___,0,0x000),
    DN(___,0,0x000),
    DN(___,0,0x000),
    DN(___,0,0x000),
    DN(___,0,0x000),
    DN(___,0,0x000),
    DN(___,0,0x000),
    DN(___,0,0x000),
    DN(___,0,0x000),
    DN(___,0,0x000),
    DN(___,0,0x000),
    DN(___,0,0x000),
};
static const unsigned char P2[] = {
    DN(___,0,0x000),
    DN(C_5,3,0xC20),
    DN(C_5,3,0xC20),
    DN(As4,3,0xC20),
    DN(C_5,3,0xC20),
    DN(D_5,3,0xC20),
    DN(Ds5,3,0xC20),
    DN(___,0,0x000),
    DN(___,0,0x000),
    DN(___,0,0x000),
    DN(As4,3,0xC20),
    DN(C_5,3,0xC20),
    DN(D_5,3,0xC20),
    DN(Ds5,3,0xC20),
    DN(As4,3,0xC20),
    DN(C_5,3,0xC20),
    DN(C_5,3,0xC20),
    DN(___,0,0x000),
    DN(Ds6,3,0xC20),
    DN(C_6,3,0xC20),
    DN(___,0,0x000),
    DN(Gs5,3,0xC20),
    DN(___,0,0xC20),
    DN(Cs6,3,0xC20),
    DN(___,0,0x000),
    DN(___,0,0x000),
    DN(___,0,0x000),
    DN(C_6,3,0xC20),
    DN(Ds6,3,0xC20),
    DN(___,0,0x000),
    DN(F_6,3,0xC20),
    DN(___,0,0x000),
    DN(G_6,3,0xC20),
    DN(Gs6,3,0xC20),
    DN(As6,3,0xC20),
    DN(C_7,3,0xC20),
    DN(F_6,3,0xC20),
    DN(___,0,0x000),
    DN(___,0,0xE00),
    DN(___,0,0xD01),
    DN(___,0,0x000),
    DN(___,0,0x000),
    DN(___,0,0x000),
    DN(___,0,0x000),
    DN(___,0,0x000),
    DN(___,0,0x000),
    DN(___,0,0x000),
    DN(___,0,0x000),
    DN(___,0,0x000),
    DN(___,0,0x000),
    DN(___,0,0x000),
    DN(___,0,0x000),
    DN(___,0,0x000),
    DN(___,0,0x000),
    DN(___,0,0x000),
    DN(___,0,0x000),
    DN(___,0,0x000),
    DN(___,0,0x000),
    DN(___,0,0x000),
    DN(___,0,0x000),
    DN(___,0,0x000),
    DN(___,0,0x000),
    DN(___,0,0x000),
    DN(___,0,0x000),
};
static const unsigned char P3[] = {
    DN(___,0,0x000),
    DN(___,0,0x000),
    DN(___,0,0x000),
    DN(___,0,0x000),
    DN(___,0,0x000),
    DN(___,0,0x000),
    DN(___,0,0x000),
    DN(___,0,0x000),
    DN(___,0,0x000),
    DN(___,0,0x000),
    DN(___,0,0x000),
    DN(___,0,0x000),
    DN(___,0,0x000),
    DN(___,0,0x000),
    DN(___,0,0x000),
    DN(___,0,0x000),
    DN(___,0,0x000),
    DN(___,0,0x000),
    DN(___,0,0x000),
    DN(___,0,0x000),
    DN(___,0,0x000),
    DN(___,0,0x000),
    DN(___,0,0x000),
    DN(___,0,0x000),
    DN(___,0,0x000),
    DN(___,0,0x000),
    DN(___,0,0x000),
    DN(___,0,0x000),
    DN(___,0,0x000),
    DN(___,0,0x000),
    DN(___,0,0x000),
    DN(___,0,0x000),
    DN(___,0,0x000),
    DN(___,0,0x000),
    DN(___,0,0x000),
    DN(___,0,0x000),
    DN(___,0,0x000),
    DN(___,0,0x000),
    DN(___,0,0x000),
    DN(___,0,0xD01),
    DN(___,0,0x000),
    DN(___,0,0x000),
    DN(___,0,0x000),
    DN(___,0,0x000),
    DN(___,0,0x000),
    DN(___,0,0x000),
    DN(___,0,0x000),
    DN(___,0,0x000),
    DN(___,0,0x000),
    DN(___,0,0x000),
    DN(___,0,0x000),
    DN(___,0,0x000),
    DN(___,0,0x000),
    DN(___,0,0x000),
    DN(___,0,0x000),
    DN(___,0,0x000),
    DN(___,0,0x000),
    DN(___,0,0x000),
    DN(___,0,0x000),
    DN(___,0,0x000),
    DN(___,0,0x000),
    DN(___,0,0x000),
    DN(___,0,0x000),
    DN(___,0,0x000),
};

static const unsigned char* const order1[] = {P0,P0};
static const unsigned char* const order2[] = {P1,P1};
static const unsigned char* const order3[] = {P2,P2};
static const unsigned char* const order4[] = {P3,P3};

static const unsigned char duty_instruments[] = {
8,0,240,128,
8,64,240,128,
8,128,240,128,
8,192,240,128,
8,0,241,128,
8,64,241,128,
8,128,241,128,
8,192,241,128,
8,128,240,128,
8,128,240,128,
8,128,240,128,
8,128,240,128,
8,128,240,128,
8,128,240,128,
8,128,240,128,
};
static const unsigned char wave_instruments[] = {
0,32,0,128,
0,32,1,128,
0,32,2,128,
0,32,3,128,
0,32,4,128,
0,32,5,128,
0,32,6,128,
0,32,7,128,
0,32,8,128,
0,32,9,128,
0,32,10,128,
0,32,11,128,
0,32,12,128,
0,32,13,128,
0,32,14,128,
};
static const unsigned char noise_instruments[] = {
240,0,0,0,0,0,0,0,
240,0,0,0,0,0,0,0,
240,0,0,0,0,0,0,0,
240,0,0,0,0,0,0,0,
240,0,0,0,0,0,0,0,
240,0,0,0,0,0,0,0,
240,0,0,0,0,0,0,0,
240,0,0,0,0,0,0,0,
240,0,0,0,0,0,0,0,
240,0,0,0,0,0,0,0,
240,0,0,0,0,0,0,0,
240,0,0,0,0,0,0,0,
240,0,0,0,0,0,0,0,
240,0,0,0,0,0,0,0,
240,0,0,0,0,0,0,0,
};

static const unsigned char waves[] = {
    0,0,255,255,255,255,255,255,255,255,255,255,255,255,255,255,
    0,0,0,0,255,255,255,255,255,255,255,255,255,255,255,255,
    0,0,0,0,0,0,0,0,255,255,255,255,255,255,255,255,
    0,0,0,0,0,0,0,0,0,0,0,0,255,255,255,255,
    0,1,18,35,52,69,86,103,120,137,154,171,188,205,222,239,
    254,220,186,152,118,84,50,16,18,52,86,120,154,188,222,255,
    122,205,219,117,33,19,104,189,220,151,65,1,71,156,221,184,
    15,15,15,15,15,15,15,15,15,15,15,15,15,15,15,15,
    254,252,250,248,246,244,242,240,242,244,246,248,250,252,254,255,
    254,221,204,187,170,153,136,119,138,189,241,36,87,138,189,238,
    132,17,97,237,87,71,90,173,206,163,23,121,221,32,3,71,
    162,53,99,169,103,75,231,51,211,34,71,206,231,120,102,32,
    139,36,81,10,156,114,172,172,46,41,206,76,51,25,142,237,
    93,157,37,154,5,167,176,117,172,113,138,88,91,202,232,28,
    219,110,5,65,184,96,98,216,235,44,87,53,215,97,196,236,
    27,46,181,54,200,117,83,165,101,90,14,164,178,7,49,139,
};

const hUGESong_t main_music = {16, &order_cnt, order1, order2, order3,order4, duty_instruments, wave_instruments, noise_instruments, NULL, waves};
